<svg xmlns="http://www.w3.org/2000/svg" xmlns:xlink="http://www.w3.org/1999/xlink" width="347" zoomAndPan="magnify" viewBox="0 0 260.25 191.999996" height="256" preserveAspectRatio="xMidYMid meet" version="1.0"><defs><g/></defs><g fill="#ffffff" fill-opacity="1"><g transform="translate(62.936942, 125.914967)"><g><path d="M 33.28125 10.765625 C 29.90625 10.765625 26.671875 9.796875 23.578125 7.859375 C 22.722656 7.285156 20.710938 5.847656 17.546875 3.546875 L 14.75 1.1875 C 14.03125 0.613281 13.457031 0.613281 13.03125 1.1875 L 11.3125 2.796875 C 9.15625 4.953125 6.460938 5.742188 3.234375 5.171875 C 2.796875 5.097656 2.21875 4.847656 1.5 4.421875 C 0.570312 3.628906 0.0859375 2.441406 0.046875 0.859375 C 0.015625 -0.710938 0.394531 -1.929688 1.1875 -2.796875 C 1.976562 -3.734375 2.875 -4.34375 3.875 -4.625 C 5.53125 -5.0625 6.425781 -5.28125 6.5625 -5.28125 C 6.707031 -5.28125 7.242188 -5.296875 8.171875 -5.328125 C 9.109375 -5.367188 9.796875 -5.53125 10.234375 -5.8125 C 10.585938 -6.101562 10.875 -6.460938 11.09375 -6.890625 C 11.3125 -7.316406 11.523438 -7.890625 11.734375 -8.609375 C 11.953125 -9.328125 12.097656 -9.796875 12.171875 -10.015625 C 13.390625 -13.742188 14.644531 -19.628906 15.9375 -27.671875 C 16.15625 -29.109375 15.582031 -30.078125 14.21875 -30.578125 L 12.921875 -30.90625 L 11.953125 -31.125 C 8.578125 -32.195312 5.921875 -34.632812 3.984375 -38.4375 C 3.691406 -39.082031 3.617188 -39.695312 3.765625 -40.28125 C 3.765625 -40.78125 3.984375 -41.171875 4.421875 -41.453125 C 4.847656 -41.597656 5.273438 -41.566406 5.703125 -41.359375 C 6.421875 -40.921875 6.890625 -40.523438 7.109375 -40.171875 L 8.71875 -37.375 C 9.65625 -35.789062 10.769531 -34.53125 12.0625 -33.59375 C 12.488281 -33.238281 13.207031 -32.914062 14.21875 -32.625 C 15.789062 -32.125 16.6875 -32.664062 16.90625 -34.25 L 17.875 -40.703125 C 18.019531 -41.492188 18.21875 -42.640625 18.46875 -44.140625 C 18.71875 -45.648438 18.945312 -47.015625 19.15625 -48.234375 C 19.375 -49.460938 19.59375 -50.613281 19.8125 -51.6875 C 20.101562 -53.414062 20.644531 -55.03125 21.4375 -56.53125 C 21.863281 -57.613281 22.472656 -58.691406 23.265625 -59.765625 C 24.628906 -61.554688 26.332031 -62.523438 28.375 -62.671875 C 30.414062 -62.816406 32.226562 -62.097656 33.8125 -60.515625 C 35.320312 -59.148438 36.113281 -57.5 36.1875 -55.5625 C 36.1875 -53.269531 36.078125 -51.582031 35.859375 -50.5 C 34.492188 -43.96875 31.082031 -38.40625 25.625 -33.8125 C 25.195312 -33.382812 24.945312 -33.171875 24.875 -33.171875 C 22.863281 -32.234375 21.679688 -30.222656 21.328125 -27.140625 C 20.171875 -18.453125 18.410156 -11.054688 16.046875 -4.953125 C 15.546875 -3.734375 15.6875 -2.765625 16.46875 -2.046875 C 16.976562 -1.617188 18.003906 -0.722656 19.546875 0.640625 C 21.085938 2.003906 22.289062 3.046875 23.15625 3.765625 C 25.664062 5.703125 27.925781 7.066406 29.9375 7.859375 C 32.09375 8.722656 34.03125 8.972656 35.75 8.609375 C 38.1875 8.109375 39.441406 6.601562 39.515625 4.09375 C 39.585938 3.945312 39.625 3.710938 39.625 3.390625 C 39.625 3.066406 39.625 2.832031 39.625 2.6875 C 39.769531 2.1875 40.128906 1.9375 40.703125 1.9375 C 42.210938 1.71875 43.144531 2.289062 43.5 3.65625 C 43.9375 5.957031 43.222656 7.679688 41.359375 8.828125 C 39.273438 10.117188 36.582031 10.765625 33.28125 10.765625 Z M 23.046875 -38.546875 C 23.191406 -38.046875 23.40625 -37.6875 23.6875 -37.46875 C 23.976562 -37.257812 24.375 -37.40625 24.875 -37.90625 C 28.96875 -42 31.410156 -47.0625 32.203125 -53.09375 C 32.410156 -54.457031 32.335938 -55.820312 31.984375 -57.1875 C 31.910156 -57.394531 31.816406 -57.640625 31.703125 -57.921875 C 31.597656 -58.210938 31.546875 -58.429688 31.546875 -58.578125 C 31.265625 -59.222656 30.816406 -59.617188 30.203125 -59.765625 C 29.597656 -59.910156 29.039062 -59.734375 28.53125 -59.234375 C 27.75 -58.441406 27.175781 -57.722656 26.8125 -57.078125 C 26.019531 -55.921875 25.375 -54.34375 24.875 -52.34375 C 24.582031 -51.332031 23.972656 -47.273438 23.046875 -40.171875 Z M 5.390625 2.484375 C 5.390625 2.410156 5.457031 2.375 5.59375 2.375 L 5.8125 2.375 C 7.175781 1.4375 8.179688 -0.0703125 8.828125 -2.15625 C 8.898438 -2.375 8.8125 -2.609375 8.5625 -2.859375 C 8.3125 -3.109375 8.003906 -3.269531 7.640625 -3.34375 C 6.347656 -3.476562 5.304688 -2.972656 4.515625 -1.828125 C 3.734375 -0.535156 3.769531 0.753906 4.625 2.046875 C 4.695312 2.191406 4.953125 2.335938 5.390625 2.484375 Z M 5.390625 2.484375 "/></g></g></g><g fill="#ffffff" fill-opacity="1"><g transform="translate(98.468229, 125.914967)"><g><path d="M 4.734375 -3.765625 C 3.515625 -4.203125 2.546875 -5.171875 1.828125 -6.671875 C 0.960938 -8.253906 0.425781 -10.191406 0.21875 -12.484375 C -0.28125 -17.085938 0.0390625 -22.007812 1.1875 -27.25 C 1.539062 -28.820312 2.617188 -29.429688 4.421875 -29.078125 C 5.566406 -28.929688 6.140625 -28.359375 6.140625 -27.359375 C 6.210938 -27.359375 6.25 -26.816406 6.25 -25.734375 L 6.140625 -24.125 L 5.921875 -20.140625 C 5.492188 -17.335938 5.566406 -13.710938 6.140625 -9.265625 C 6.359375 -8.398438 6.679688 -7.535156 7.109375 -6.671875 C 7.179688 -6.390625 7.394531 -6.210938 7.75 -6.140625 C 8.113281 -6.066406 8.398438 -6.140625 8.609375 -6.359375 C 9.546875 -7.210938 10.226562 -7.859375 10.65625 -8.296875 C 13.175781 -11.234375 15.148438 -14.351562 16.578125 -17.65625 C 17.085938 -18.738281 18.203125 -21.46875 19.921875 -25.84375 C 20.140625 -26.269531 20.535156 -26.914062 21.109375 -27.78125 C 21.253906 -28 21.613281 -28.070312 22.1875 -28 C 22.757812 -27.925781 23.117188 -27.78125 23.265625 -27.5625 C 23.398438 -27.0625 23.46875 -26.773438 23.46875 -26.703125 C 23.039062 -25.335938 22.328125 -23.289062 21.328125 -20.5625 C 19.390625 -15.394531 16.984375 -11.085938 14.109375 -7.640625 C 13.390625 -6.640625 12.5625 -5.707031 11.625 -4.84375 C 9.832031 -3.125 7.535156 -2.765625 4.734375 -3.765625 Z M 3.453125 -36.296875 C 2.941406 -36.648438 2.664062 -37.253906 2.625 -38.109375 C 2.59375 -38.972656 2.832031 -39.625 3.34375 -40.0625 C 3.625 -40.34375 3.875 -40.484375 4.09375 -40.484375 C 5.238281 -40.628906 6.132812 -40.453125 6.78125 -39.953125 C 7.425781 -39.523438 7.609375 -38.695312 7.328125 -37.46875 C 7.035156 -36.46875 6.507812 -35.859375 5.75 -35.640625 C 5 -35.429688 4.234375 -35.648438 3.453125 -36.296875 Z M 3.453125 -36.296875 "/></g></g></g><g fill="#ffffff" fill-opacity="1"><g transform="translate(117.63358, 125.914967)"><g><path d="M 37.15625 -27.453125 C 37.363281 -27.523438 37.613281 -27.472656 37.90625 -27.296875 C 38.195312 -27.117188 38.304688 -26.957031 38.234375 -26.8125 C 38.234375 -26.382812 38.160156 -26.132812 38.015625 -26.0625 C 37.796875 -25.84375 37.578125 -25.644531 37.359375 -25.46875 C 37.148438 -25.289062 36.882812 -25.070312 36.5625 -24.8125 C 36.238281 -24.5625 36.003906 -24.367188 35.859375 -24.234375 L 30.46875 -19.8125 C 28.53125 -18.238281 27.5625 -16.226562 27.5625 -13.78125 C 27.488281 -10.84375 26.519531 -7.109375 24.65625 -2.578125 C 23.9375 -0.929688 23.078125 0.5 22.078125 1.71875 C 20.421875 3.726562 18.195312 4.660156 15.40625 4.515625 C 13.457031 4.304688 12.269531 3.234375 11.84375 1.296875 C 11.625 -0.210938 11.804688 -1.578125 12.390625 -2.796875 C 13.390625 -4.585938 14.101562 -5.773438 14.53125 -6.359375 C 17.625 -10.085938 19.742188 -12.523438 20.890625 -13.671875 C 22.609375 -15.472656 23.289062 -17.628906 22.9375 -20.140625 C 22.863281 -20.492188 22.578125 -21.675781 22.078125 -23.6875 C 21.929688 -24.125 21.585938 -24.410156 21.046875 -24.546875 C 20.515625 -24.691406 20.066406 -24.625 19.703125 -24.34375 C 17.617188 -22.613281 16.4375 -21.609375 16.15625 -21.328125 C 13.570312 -18.597656 11.523438 -15.363281 10.015625 -11.625 C 8.796875 -8.613281 7.789062 -4.882812 7 -0.4375 C 6.925781 0.144531 6.890625 1.726562 6.890625 4.3125 C 7.035156 5.882812 7.109375 7.101562 7.109375 7.96875 C 7.109375 9.476562 6.242188 10.410156 4.515625 10.765625 C 3.585938 10.910156 2.976562 10.550781 2.6875 9.6875 C 2.257812 8.039062 2.046875 7.144531 2.046875 7 C 1.546875 3.476562 1.113281 -0.0703125 0.75 -3.65625 C 0.175781 -11.914062 -0.0703125 -16.726562 0 -18.09375 C 0 -18.09375 0 -18.378906 0 -18.953125 C 0.570312 -30.578125 0.859375 -36.460938 0.859375 -36.609375 C 1.359375 -42.785156 2.289062 -48.132812 3.65625 -52.65625 C 4.519531 -55.675781 5.597656 -58.082031 6.890625 -59.875 C 10.484375 -64.96875 15.507812 -66.367188 21.96875 -64.078125 C 24.332031 -63.140625 25.515625 -61.269531 25.515625 -58.46875 C 25.453125 -56.457031 24.804688 -53.910156 23.578125 -50.828125 C 21.785156 -46.085938 19.203125 -41.347656 15.828125 -36.609375 C 12.523438 -32.234375 10.015625 -29.289062 8.296875 -27.78125 C 6.566406 -26.207031 5.738281 -24.304688 5.8125 -22.078125 L 6.03125 -14.53125 C 6.03125 -14.175781 6.207031 -14 6.5625 -14 C 6.78125 -13.851562 7.035156 -13.925781 7.328125 -14.21875 L 8.828125 -16.578125 C 9.835938 -18.453125 11.203125 -20.320312 12.921875 -22.1875 L 15.609375 -24.765625 C 17.691406 -26.554688 20.132812 -27.273438 22.9375 -26.921875 C 24.300781 -26.847656 25.34375 -26.273438 26.0625 -25.203125 C 26.207031 -24.910156 26.472656 -24.441406 26.859375 -23.796875 C 27.253906 -23.148438 27.5625 -22.6875 27.78125 -22.40625 C 27.851562 -22.332031 27.976562 -22.257812 28.15625 -22.1875 C 28.332031 -22.113281 28.457031 -22.113281 28.53125 -22.1875 C 28.894531 -22.394531 29.398438 -22.710938 30.046875 -23.140625 C 30.691406 -23.578125 31.085938 -23.832031 31.234375 -23.90625 L 35.421875 -26.921875 C 35.785156 -27.140625 36.363281 -27.316406 37.15625 -27.453125 Z M 8.828125 -50.9375 C 7.898438 -46.988281 7.078125 -41.101562 6.359375 -33.28125 C 6.359375 -32.84375 6.394531 -32.484375 6.46875 -32.203125 C 6.46875 -32.054688 6.535156 -31.910156 6.671875 -31.765625 L 7.53125 -31.765625 C 7.820312 -31.910156 8.179688 -32.195312 8.609375 -32.625 C 13.203125 -38.007812 16.796875 -43.753906 19.390625 -49.859375 C 19.960938 -51.441406 20.460938 -52.878906 20.890625 -54.171875 C 21.390625 -55.816406 21.570312 -57.644531 21.4375 -59.65625 C 21.363281 -60.945312 20.875 -61.878906 19.96875 -62.453125 C 19.070312 -63.023438 18.015625 -63.132812 16.796875 -62.78125 C 16.222656 -62.5625 15.4375 -62.09375 14.4375 -61.375 C 13.644531 -60.726562 12.671875 -59.546875 11.515625 -57.828125 C 10.515625 -56.171875 9.617188 -53.875 8.828125 -50.9375 Z M 21.328125 -7.75 L 21.328125 -8.1875 C 21.328125 -8.332031 21.253906 -8.472656 21.109375 -8.609375 L 20.25 -8.609375 C 18.519531 -6.960938 17.191406 -5.242188 16.265625 -3.453125 C 15.828125 -2.296875 15.570312 -1.429688 15.5 -0.859375 C 15.4375 -0.578125 15.582031 -0.00390625 15.9375 0.859375 C 15.9375 0.929688 15.988281 0.984375 16.09375 1.015625 C 16.207031 1.054688 16.332031 1.113281 16.46875 1.1875 C 16.613281 1.257812 16.722656 1.332031 16.796875 1.40625 C 16.867188 1.40625 17.046875 1.332031 17.328125 1.1875 C 17.617188 1.039062 17.800781 0.894531 17.875 0.75 C 19.59375 -1.6875 20.742188 -4.519531 21.328125 -7.75 Z M 21.328125 -7.75 "/></g></g></g><g fill="#ffffff" fill-opacity="1"><g transform="translate(151.549815, 125.914967)"><g><path d="M 4.734375 -3.765625 C 3.515625 -4.203125 2.546875 -5.171875 1.828125 -6.671875 C 0.960938 -8.253906 0.425781 -10.191406 0.21875 -12.484375 C -0.28125 -17.085938 0.0390625 -22.007812 1.1875 -27.25 C 1.539062 -28.820312 2.617188 -29.429688 4.421875 -29.078125 C 5.566406 -28.929688 6.140625 -28.359375 6.140625 -27.359375 C 6.210938 -27.359375 6.25 -26.816406 6.25 -25.734375 L 6.140625 -24.125 L 5.921875 -20.140625 C 5.492188 -17.335938 5.566406 -13.710938 6.140625 -9.265625 C 6.359375 -8.398438 6.679688 -7.535156 7.109375 -6.671875 C 7.179688 -6.390625 7.394531 -6.210938 7.75 -6.140625 C 8.113281 -6.066406 8.398438 -6.140625 8.609375 -6.359375 C 9.546875 -7.210938 10.226562 -7.859375 10.65625 -8.296875 C 13.175781 -11.234375 15.148438 -14.351562 16.578125 -17.65625 C 17.085938 -18.738281 18.203125 -21.46875 19.921875 -25.84375 C 20.140625 -26.269531 20.535156 -26.914062 21.109375 -27.78125 C 21.253906 -28 21.613281 -28.070312 22.1875 -28 C 22.757812 -27.925781 23.117188 -27.78125 23.265625 -27.5625 C 23.398438 -27.0625 23.46875 -26.773438 23.46875 -26.703125 C 23.039062 -25.335938 22.328125 -23.289062 21.328125 -20.5625 C 19.390625 -15.394531 16.984375 -11.085938 14.109375 -7.640625 C 13.390625 -6.640625 12.5625 -5.707031 11.625 -4.84375 C 9.832031 -3.125 7.535156 -2.765625 4.734375 -3.765625 Z M 3.453125 -36.296875 C 2.941406 -36.648438 2.664062 -37.253906 2.625 -38.109375 C 2.59375 -38.972656 2.832031 -39.625 3.34375 -40.0625 C 3.625 -40.34375 3.875 -40.484375 4.09375 -40.484375 C 5.238281 -40.628906 6.132812 -40.453125 6.78125 -39.953125 C 7.425781 -39.523438 7.609375 -38.695312 7.328125 -37.46875 C 7.035156 -36.46875 6.507812 -35.859375 5.75 -35.640625 C 5 -35.429688 4.234375 -35.648438 3.453125 -36.296875 Z M 3.453125 -36.296875 "/></g></g></g><g fill="#ffffff" fill-opacity="1"><g transform="translate(170.715166, 125.914967)"><g><path d="M 16.265625 -4.3125 C 14.035156 -2.375 11.503906 -1.726562 8.671875 -2.375 C 5.835938 -3.019531 3.878906 -4.523438 2.796875 -6.890625 C 1.148438 -10.410156 0.21875 -14 0 -17.65625 L 0 -19.8125 C -0.21875 -25.488281 0.640625 -30.367188 2.578125 -34.453125 C 3.585938 -36.535156 4.953125 -38.1875 6.671875 -39.40625 C 8.828125 -40.914062 11.195312 -41.171875 13.78125 -40.171875 C 14.71875 -39.804688 15.382812 -39.191406 15.78125 -38.328125 C 16.175781 -37.472656 16.226562 -36.578125 15.9375 -35.640625 C 14.570312 -31.410156 11.804688 -28.46875 7.640625 -26.8125 C 6.421875 -26.382812 5.773438 -25.59375 5.703125 -24.4375 C 5.128906 -18.125 5.921875 -12.523438 8.078125 -7.640625 C 8.867188 -5.847656 9.691406 -4.863281 10.546875 -4.6875 C 11.410156 -4.507812 12.523438 -5.066406 13.890625 -6.359375 C 15.253906 -7.648438 16.617188 -9.335938 17.984375 -11.421875 C 20.640625 -15.296875 23.007812 -19.457031 25.09375 -23.90625 C 26.019531 -25.5625 26.664062 -26.640625 27.03125 -27.140625 C 27.382812 -27.785156 28.066406 -28 29.078125 -27.78125 C 29.722656 -27.5 29.972656 -27.175781 29.828125 -26.8125 C 29.753906 -26.238281 29.578125 -25.628906 29.296875 -24.984375 C 26.710938 -19.304688 23.875 -14.171875 20.78125 -9.578125 C 19.34375 -7.503906 17.835938 -5.75 16.265625 -4.3125 Z M 7.4375 -30.15625 L 7.859375 -30.15625 C 10.296875 -31.800781 11.769531 -33.878906 12.28125 -36.390625 C 12.28125 -36.753906 12.242188 -37.046875 12.171875 -37.265625 C 12.023438 -37.617188 11.84375 -37.832031 11.625 -37.90625 C 11.34375 -38.050781 11.054688 -38.050781 10.765625 -37.90625 C 8.609375 -36.320312 7.351562 -33.988281 7 -30.90625 C 7 -30.832031 7.070312 -30.6875 7.21875 -30.46875 Z M 7.4375 -30.15625 "/></g></g></g><g fill="#ffffff" fill-opacity="1"><g transform="translate(24.968006, 173.056256)"><g><path d="M 3.25 0 L 3.25 -27.546875 L 11.453125 -27.546875 C 12.585938 -27.535156 13.695312 -27.382812 14.78125 -27.09375 C 15.863281 -26.8125 16.828125 -26.375 17.671875 -25.78125 C 18.515625 -25.195312 19.1875 -24.441406 19.6875 -23.515625 C 20.195312 -22.597656 20.445312 -21.492188 20.4375 -20.203125 C 20.425781 -19.484375 20.304688 -18.828125 20.078125 -18.234375 C 19.859375 -17.640625 19.554688 -17.109375 19.171875 -16.640625 C 18.785156 -16.171875 18.332031 -15.757812 17.8125 -15.40625 C 17.300781 -15.050781 16.753906 -14.75 16.171875 -14.5 C 16.910156 -14.28125 17.582031 -13.972656 18.1875 -13.578125 C 18.800781 -13.179688 19.328125 -12.703125 19.765625 -12.140625 C 20.210938 -11.578125 20.554688 -10.941406 20.796875 -10.234375 C 21.046875 -9.523438 21.171875 -8.765625 21.171875 -7.953125 C 21.179688 -6.660156 20.929688 -5.519531 20.421875 -4.53125 C 19.921875 -3.550781 19.25 -2.726562 18.40625 -2.0625 C 17.5625 -1.40625 16.585938 -0.898438 15.484375 -0.546875 C 14.378906 -0.191406 13.242188 -0.0078125 12.078125 0 Z M 6.78125 -12.890625 L 6.78125 -2.96875 L 12.171875 -2.96875 C 12.898438 -2.976562 13.59375 -3.097656 14.25 -3.328125 C 14.90625 -3.566406 15.484375 -3.894531 15.984375 -4.3125 C 16.492188 -4.726562 16.894531 -5.238281 17.1875 -5.84375 C 17.488281 -6.445312 17.640625 -7.132812 17.640625 -7.90625 C 17.648438 -8.6875 17.519531 -9.378906 17.25 -9.984375 C 16.976562 -10.597656 16.601562 -11.113281 16.125 -11.53125 C 15.644531 -11.957031 15.082031 -12.28125 14.4375 -12.5 C 13.789062 -12.726562 13.097656 -12.859375 12.359375 -12.890625 Z M 6.78125 -15.796875 L 11.65625 -15.796875 C 12.3125 -15.804688 12.953125 -15.910156 13.578125 -16.109375 C 14.210938 -16.304688 14.773438 -16.585938 15.265625 -16.953125 C 15.753906 -17.328125 16.148438 -17.785156 16.453125 -18.328125 C 16.765625 -18.867188 16.921875 -19.5 16.921875 -20.21875 C 16.921875 -20.988281 16.769531 -21.644531 16.46875 -22.1875 C 16.175781 -22.738281 15.78125 -23.1875 15.28125 -23.53125 C 14.78125 -23.875 14.203125 -24.128906 13.546875 -24.296875 C 12.898438 -24.460938 12.238281 -24.550781 11.5625 -24.5625 L 6.78125 -24.5625 Z M 6.78125 -15.796875 "/></g></g></g><g fill="#ffffff" fill-opacity="1"><g transform="translate(48.222333, 173.056256)"><g><path d="M 2.3125 -10.421875 C 2.3125 -11.898438 2.523438 -13.269531 2.953125 -14.53125 C 3.378906 -15.800781 3.992188 -16.90625 4.796875 -17.84375 C 5.597656 -18.78125 6.570312 -19.515625 7.71875 -20.046875 C 8.863281 -20.578125 10.15625 -20.84375 11.59375 -20.84375 C 13.050781 -20.84375 14.351562 -20.578125 15.5 -20.046875 C 16.65625 -19.515625 17.632812 -18.78125 18.4375 -17.84375 C 19.238281 -16.90625 19.851562 -15.800781 20.28125 -14.53125 C 20.707031 -13.269531 20.921875 -11.898438 20.921875 -10.421875 L 20.921875 -10.015625 C 20.921875 -8.535156 20.707031 -7.164062 20.28125 -5.90625 C 19.851562 -4.644531 19.238281 -3.546875 18.4375 -2.609375 C 17.632812 -1.679688 16.660156 -0.953125 15.515625 -0.421875 C 14.367188 0.109375 13.078125 0.375 11.640625 0.375 C 10.179688 0.375 8.875 0.109375 7.71875 -0.421875 C 6.570312 -0.953125 5.597656 -1.679688 4.796875 -2.609375 C 3.992188 -3.546875 3.378906 -4.644531 2.953125 -5.90625 C 2.523438 -7.164062 2.3125 -8.535156 2.3125 -10.015625 Z M 5.8125 -10.015625 C 5.8125 -9.003906 5.929688 -8.039062 6.171875 -7.125 C 6.410156 -6.207031 6.769531 -5.398438 7.25 -4.703125 C 7.738281 -4.015625 8.347656 -3.46875 9.078125 -3.0625 C 9.804688 -2.65625 10.660156 -2.453125 11.640625 -2.453125 C 12.597656 -2.453125 13.4375 -2.65625 14.15625 -3.0625 C 14.882812 -3.46875 15.488281 -4.015625 15.96875 -4.703125 C 16.457031 -5.398438 16.820312 -6.207031 17.0625 -7.125 C 17.300781 -8.039062 17.421875 -9.003906 17.421875 -10.015625 L 17.421875 -10.421875 C 17.421875 -11.421875 17.296875 -12.375 17.046875 -13.28125 C 16.804688 -14.195312 16.441406 -15.003906 15.953125 -15.703125 C 15.472656 -16.398438 14.867188 -16.953125 14.140625 -17.359375 C 13.421875 -17.765625 12.570312 -17.96875 11.59375 -17.96875 C 10.625 -17.96875 9.78125 -17.765625 9.0625 -17.359375 C 8.34375 -16.953125 7.738281 -16.398438 7.25 -15.703125 C 6.769531 -15.003906 6.410156 -14.195312 6.171875 -13.28125 C 5.929688 -12.375 5.8125 -11.421875 5.8125 -10.421875 Z M 5.8125 -10.015625 "/></g></g></g><g fill="#ffffff" fill-opacity="1"><g transform="translate(71.476659, 173.056256)"><g><path d="M 2.3125 -10.421875 C 2.3125 -11.898438 2.523438 -13.269531 2.953125 -14.53125 C 3.378906 -15.800781 3.992188 -16.90625 4.796875 -17.84375 C 5.597656 -18.78125 6.570312 -19.515625 7.71875 -20.046875 C 8.863281 -20.578125 10.15625 -20.84375 11.59375 -20.84375 C 13.050781 -20.84375 14.351562 -20.578125 15.5 -20.046875 C 16.65625 -19.515625 17.632812 -18.78125 18.4375 -17.84375 C 19.238281 -16.90625 19.851562 -15.800781 20.28125 -14.53125 C 20.707031 -13.269531 20.921875 -11.898438 20.921875 -10.421875 L 20.921875 -10.015625 C 20.921875 -8.535156 20.707031 -7.164062 20.28125 -5.90625 C 19.851562 -4.644531 19.238281 -3.546875 18.4375 -2.609375 C 17.632812 -1.679688 16.660156 -0.953125 15.515625 -0.421875 C 14.367188 0.109375 13.078125 0.375 11.640625 0.375 C 10.179688 0.375 8.875 0.109375 7.71875 -0.421875 C 6.570312 -0.953125 5.597656 -1.679688 4.796875 -2.609375 C 3.992188 -3.546875 3.378906 -4.644531 2.953125 -5.90625 C 2.523438 -7.164062 2.3125 -8.535156 2.3125 -10.015625 Z M 5.8125 -10.015625 C 5.8125 -9.003906 5.929688 -8.039062 6.171875 -7.125 C 6.410156 -6.207031 6.769531 -5.398438 7.25 -4.703125 C 7.738281 -4.015625 8.347656 -3.46875 9.078125 -3.0625 C 9.804688 -2.65625 10.660156 -2.453125 11.640625 -2.453125 C 12.597656 -2.453125 13.4375 -2.65625 14.15625 -3.0625 C 14.882812 -3.46875 15.488281 -4.015625 15.96875 -4.703125 C 16.457031 -5.398438 16.820312 -6.207031 17.0625 -7.125 C 17.300781 -8.039062 17.421875 -9.003906 17.421875 -10.015625 L 17.421875 -10.421875 C 17.421875 -11.421875 17.296875 -12.375 17.046875 -13.28125 C 16.804688 -14.195312 16.441406 -15.003906 15.953125 -15.703125 C 15.472656 -16.398438 14.867188 -16.953125 14.140625 -17.359375 C 13.421875 -17.765625 12.570312 -17.96875 11.59375 -17.96875 C 10.625 -17.96875 9.78125 -17.765625 9.0625 -17.359375 C 8.34375 -16.953125 7.738281 -16.398438 7.25 -15.703125 C 6.769531 -15.003906 6.410156 -14.195312 6.171875 -13.28125 C 5.929688 -12.375 5.8125 -11.421875 5.8125 -10.421875 Z M 5.8125 -10.015625 "/></g></g></g><g fill="#ffffff" fill-opacity="1"><g transform="translate(94.730986, 173.056256)"><g><path d="M 9.421875 -9.5625 L 6.84375 -7.078125 L 6.84375 0 L 3.328125 0 L 3.328125 -29.0625 L 6.84375 -29.0625 L 6.84375 -11.28125 L 9.140625 -13.734375 L 15.859375 -20.46875 L 20.109375 -20.46875 L 11.828125 -11.9375 L 21.375 0 L 16.9375 0 Z M 9.421875 -9.5625 "/></g></g></g><g fill="#ffffff" fill-opacity="1"><g transform="translate(117.985313, 173.056256)"><g><path d="M 16.890625 -5.4375 C 16.890625 -5.851562 16.804688 -6.226562 16.640625 -6.5625 C 16.484375 -6.894531 16.207031 -7.195312 15.8125 -7.46875 C 15.425781 -7.75 14.910156 -8.003906 14.265625 -8.234375 C 13.617188 -8.472656 12.816406 -8.6875 11.859375 -8.875 C 10.691406 -9.113281 9.625 -9.398438 8.65625 -9.734375 C 7.6875 -10.078125 6.859375 -10.484375 6.171875 -10.953125 C 5.484375 -11.429688 4.953125 -11.988281 4.578125 -12.625 C 4.203125 -13.257812 4.015625 -14.003906 4.015625 -14.859375 C 4.015625 -15.691406 4.207031 -16.46875 4.59375 -17.1875 C 4.988281 -17.914062 5.535156 -18.550781 6.234375 -19.09375 C 6.941406 -19.632812 7.785156 -20.0625 8.765625 -20.375 C 9.742188 -20.6875 10.820312 -20.84375 12 -20.84375 C 13.257812 -20.84375 14.394531 -20.675781 15.40625 -20.34375 C 16.414062 -20.019531 17.269531 -19.566406 17.96875 -18.984375 C 18.675781 -18.410156 19.222656 -17.734375 19.609375 -16.953125 C 19.992188 -16.179688 20.1875 -15.347656 20.1875 -14.453125 L 16.6875 -14.453125 C 16.6875 -14.898438 16.570312 -15.332031 16.34375 -15.75 C 16.113281 -16.175781 15.796875 -16.550781 15.390625 -16.875 C 14.992188 -17.207031 14.507812 -17.472656 13.9375 -17.671875 C 13.363281 -17.867188 12.71875 -17.96875 12 -17.96875 C 11.25 -17.96875 10.59375 -17.882812 10.03125 -17.71875 C 9.476562 -17.5625 9.015625 -17.34375 8.640625 -17.0625 C 8.265625 -16.789062 7.984375 -16.46875 7.796875 -16.09375 C 7.609375 -15.726562 7.515625 -15.351562 7.515625 -14.96875 C 7.515625 -14.5625 7.585938 -14.203125 7.734375 -13.890625 C 7.890625 -13.578125 8.148438 -13.289062 8.515625 -13.03125 C 8.890625 -12.78125 9.390625 -12.550781 10.015625 -12.34375 C 10.640625 -12.144531 11.429688 -11.953125 12.390625 -11.765625 C 13.648438 -11.503906 14.78125 -11.195312 15.78125 -10.84375 C 16.78125 -10.5 17.617188 -10.082031 18.296875 -9.59375 C 18.972656 -9.113281 19.488281 -8.550781 19.84375 -7.90625 C 20.207031 -7.257812 20.390625 -6.515625 20.390625 -5.671875 C 20.390625 -4.765625 20.1875 -3.9375 19.78125 -3.1875 C 19.375 -2.445312 18.800781 -1.8125 18.0625 -1.28125 C 17.332031 -0.75 16.457031 -0.335938 15.4375 -0.046875 C 14.414062 0.234375 13.300781 0.375 12.09375 0.375 C 10.707031 0.375 9.46875 0.191406 8.375 -0.171875 C 7.289062 -0.546875 6.375 -1.039062 5.625 -1.65625 C 4.875 -2.269531 4.300781 -2.976562 3.90625 -3.78125 C 3.507812 -4.59375 3.3125 -5.429688 3.3125 -6.296875 L 6.8125 -6.296875 C 6.863281 -5.578125 7.054688 -4.972656 7.390625 -4.484375 C 7.722656 -3.992188 8.140625 -3.597656 8.640625 -3.296875 C 9.140625 -2.992188 9.691406 -2.773438 10.296875 -2.640625 C 10.898438 -2.515625 11.5 -2.453125 12.09375 -2.453125 C 13.5625 -2.453125 14.722656 -2.722656 15.578125 -3.265625 C 16.441406 -3.816406 16.878906 -4.539062 16.890625 -5.4375 Z M 16.890625 -5.4375 "/></g></g></g><g fill="#ffffff" fill-opacity="1"><g transform="translate(141.239639, 173.056256)"><g><path d="M 11.578125 -25.4375 L 11.578125 -20.46875 L 19.375 -20.46875 L 19.375 -17.765625 L 11.578125 -17.765625 L 11.578125 -6.640625 C 11.578125 -5.847656 11.675781 -5.191406 11.875 -4.671875 C 12.082031 -4.148438 12.363281 -3.734375 12.71875 -3.421875 C 13.070312 -3.117188 13.476562 -2.90625 13.9375 -2.78125 C 14.394531 -2.65625 14.882812 -2.59375 15.40625 -2.59375 C 15.78125 -2.59375 16.171875 -2.613281 16.578125 -2.65625 C 16.984375 -2.695312 17.375 -2.75 17.75 -2.8125 C 18.132812 -2.875 18.492188 -2.941406 18.828125 -3.015625 C 19.171875 -3.085938 19.445312 -3.148438 19.65625 -3.203125 L 20.15625 -0.71875 C 19.863281 -0.539062 19.507812 -0.382812 19.09375 -0.25 C 18.675781 -0.125 18.21875 -0.015625 17.71875 0.078125 C 17.226562 0.179688 16.707031 0.253906 16.15625 0.296875 C 15.613281 0.347656 15.070312 0.375 14.53125 0.375 C 13.625 0.375 12.773438 0.25 11.984375 0 C 11.191406 -0.257812 10.503906 -0.671875 9.921875 -1.234375 C 9.347656 -1.796875 8.894531 -2.519531 8.5625 -3.40625 C 8.226562 -4.300781 8.0625 -5.378906 8.0625 -6.640625 L 8.0625 -17.765625 L 2.6875 -17.765625 L 2.6875 -20.46875 L 8.0625 -20.46875 L 8.0625 -25.4375 Z M 11.578125 -25.4375 "/></g></g></g><g fill="#ffffff" fill-opacity="1"><g transform="translate(164.493966, 173.056256)"><g><path d="M 2.3125 -10.421875 C 2.3125 -11.898438 2.523438 -13.269531 2.953125 -14.53125 C 3.378906 -15.800781 3.992188 -16.90625 4.796875 -17.84375 C 5.597656 -18.78125 6.570312 -19.515625 7.71875 -20.046875 C 8.863281 -20.578125 10.15625 -20.84375 11.59375 -20.84375 C 13.050781 -20.84375 14.351562 -20.578125 15.5 -20.046875 C 16.65625 -19.515625 17.632812 -18.78125 18.4375 -17.84375 C 19.238281 -16.90625 19.851562 -15.800781 20.28125 -14.53125 C 20.707031 -13.269531 20.921875 -11.898438 20.921875 -10.421875 L 20.921875 -10.015625 C 20.921875 -8.535156 20.707031 -7.164062 20.28125 -5.90625 C 19.851562 -4.644531 19.238281 -3.546875 18.4375 -2.609375 C 17.632812 -1.679688 16.660156 -0.953125 15.515625 -0.421875 C 14.367188 0.109375 13.078125 0.375 11.640625 0.375 C 10.179688 0.375 8.875 0.109375 7.71875 -0.421875 C 6.570312 -0.953125 5.597656 -1.679688 4.796875 -2.609375 C 3.992188 -3.546875 3.378906 -4.644531 2.953125 -5.90625 C 2.523438 -7.164062 2.3125 -8.535156 2.3125 -10.015625 Z M 5.8125 -10.015625 C 5.8125 -9.003906 5.929688 -8.039062 6.171875 -7.125 C 6.410156 -6.207031 6.769531 -5.398438 7.25 -4.703125 C 7.738281 -4.015625 8.347656 -3.46875 9.078125 -3.0625 C 9.804688 -2.65625 10.660156 -2.453125 11.640625 -2.453125 C 12.597656 -2.453125 13.4375 -2.65625 14.15625 -3.0625 C 14.882812 -3.46875 15.488281 -4.015625 15.96875 -4.703125 C 16.457031 -5.398438 16.820312 -6.207031 17.0625 -7.125 C 17.300781 -8.039062 17.421875 -9.003906 17.421875 -10.015625 L 17.421875 -10.421875 C 17.421875 -11.421875 17.296875 -12.375 17.046875 -13.28125 C 16.804688 -14.195312 16.441406 -15.003906 15.953125 -15.703125 C 15.472656 -16.398438 14.867188 -16.953125 14.140625 -17.359375 C 13.421875 -17.765625 12.570312 -17.96875 11.59375 -17.96875 C 10.625 -17.96875 9.78125 -17.765625 9.0625 -17.359375 C 8.34375 -16.953125 7.738281 -16.398438 7.25 -15.703125 C 6.769531 -15.003906 6.410156 -14.195312 6.171875 -13.28125 C 5.929688 -12.375 5.8125 -11.421875 5.8125 -10.421875 Z M 5.8125 -10.015625 "/></g></g></g><g fill="#ffffff" fill-opacity="1"><g transform="translate(187.748284, 173.056256)"><g><path d="M 16.703125 -20.84375 C 17.035156 -20.84375 17.378906 -20.832031 17.734375 -20.8125 C 18.085938 -20.800781 18.421875 -20.769531 18.734375 -20.71875 C 19.054688 -20.675781 19.351562 -20.625 19.625 -20.5625 C 19.894531 -20.5 20.117188 -20.429688 20.296875 -20.359375 L 19.828125 -16.9375 C 19.148438 -17.082031 18.503906 -17.191406 17.890625 -17.265625 C 17.273438 -17.335938 16.632812 -17.375 15.96875 -17.375 C 14.332031 -17.375 13.003906 -17 11.984375 -16.25 C 10.972656 -15.507812 10.226562 -14.46875 9.75 -13.125 L 9.75 0 L 6.21875 0 L 6.21875 -20.46875 L 9.5625 -20.46875 L 9.71875 -17.21875 C 10.550781 -18.34375 11.550781 -19.226562 12.71875 -19.875 C 13.882812 -20.519531 15.210938 -20.84375 16.703125 -20.84375 Z M 16.703125 -20.84375 "/></g></g></g><g fill="#ffffff" fill-opacity="1"><g transform="translate(211.00262, 173.056256)"><g><path d="M 12.34375 0.375 C 10.894531 0.375 9.566406 0.128906 8.359375 -0.359375 C 7.160156 -0.847656 6.132812 -1.535156 5.28125 -2.421875 C 4.425781 -3.304688 3.753906 -4.351562 3.265625 -5.5625 C 2.785156 -6.769531 2.546875 -8.085938 2.546875 -9.515625 L 2.546875 -10.3125 C 2.546875 -11.96875 2.8125 -13.445312 3.34375 -14.75 C 3.875 -16.050781 4.578125 -17.148438 5.453125 -18.046875 C 6.335938 -18.953125 7.335938 -19.644531 8.453125 -20.125 C 9.566406 -20.601562 10.707031 -20.84375 11.875 -20.84375 C 13.351562 -20.84375 14.644531 -20.585938 15.75 -20.078125 C 16.851562 -19.566406 17.769531 -18.859375 18.5 -17.953125 C 19.238281 -17.054688 19.785156 -15.992188 20.140625 -14.765625 C 20.503906 -13.546875 20.6875 -12.222656 20.6875 -10.796875 L 20.6875 -9.234375 L 6.0625 -9.234375 C 6.09375 -8.296875 6.269531 -7.414062 6.59375 -6.59375 C 6.914062 -5.78125 7.359375 -5.066406 7.921875 -4.453125 C 8.484375 -3.835938 9.15625 -3.351562 9.9375 -3 C 10.71875 -2.65625 11.582031 -2.484375 12.53125 -2.484375 C 13.78125 -2.484375 14.890625 -2.734375 15.859375 -3.234375 C 16.828125 -3.742188 17.632812 -4.410156 18.28125 -5.234375 L 20.421875 -3.578125 C 20.078125 -3.054688 19.648438 -2.554688 19.140625 -2.078125 C 18.628906 -1.609375 18.035156 -1.191406 17.359375 -0.828125 C 16.691406 -0.460938 15.9375 -0.171875 15.09375 0.046875 C 14.25 0.265625 13.332031 0.375 12.34375 0.375 Z M 11.875 -17.96875 C 11.175781 -17.96875 10.507812 -17.835938 9.875 -17.578125 C 9.25 -17.328125 8.679688 -16.953125 8.171875 -16.453125 C 7.671875 -15.953125 7.242188 -15.335938 6.890625 -14.609375 C 6.546875 -13.890625 6.304688 -13.054688 6.171875 -12.109375 L 17.1875 -12.109375 L 17.1875 -12.375 C 17.144531 -13.050781 17.015625 -13.722656 16.796875 -14.390625 C 16.578125 -15.066406 16.25 -15.664062 15.8125 -16.1875 C 15.382812 -16.71875 14.84375 -17.144531 14.1875 -17.46875 C 13.539062 -17.800781 12.769531 -17.96875 11.875 -17.96875 Z M 11.875 -17.96875 "/></g></g></g></svg>